HIERARCHY
ROOT joint_Root
{
	OFFSET 0.0 0.0 0.0
	CHANNELS 6 Xposition Yposition Zposition Zrotation Xrotation Yrotation 
	JOINT Hips
	{
		OFFSET -0.726466 93.3139 -2.00062
		CHANNELS 6 Xposition Yposition Zposition Zrotation Xrotation Yrotation 
		JOINT Spine
		{
			OFFSET 15.7357 0.0 0.0
			CHANNELS 6 Xposition Yposition Zposition Zrotation Xrotation Yrotation 
			JOINT Chest
			{
				OFFSET 8.98455 -0.406207 0.0
				CHANNELS 6 Xposition Yposition Zposition Zrotation Xrotation Yrotation 
				JOINT Neck
				{
					OFFSET 16.3773 0.0 0.0
					CHANNELS 6 Xposition Yposition Zposition Zrotation Xrotation Yrotation 
					JOINT Head
					{
						OFFSET 6.45672 0.0 0.0
						CHANNELS 6 Xposition Yposition Zposition Zrotation Xrotation Yrotation 
						End Site
						{
							OFFSET 0.0 0.0 0.0
						}
					}
				}
				JOINT Shoulder_L
				{
					OFFSET 12.9942 -0.242716 4.98039
					CHANNELS 6 Xposition Yposition Zposition Zrotation Xrotation Yrotation 
					JOINT UpperArm_L
					{
						OFFSET 5.34809 0.0 0.0
						CHANNELS 6 Xposition Yposition Zposition Zrotation Xrotation Yrotation 
						JOINT LowerArm_L
						{
							OFFSET 24.3286 1.87007e-05 0.0
							CHANNELS 6 Xposition Yposition Zposition Zrotation Xrotation Yrotation 
							JOINT Hand_L
							{
								OFFSET 22.2916 0.0 0.0
								CHANNELS 6 Xposition Yposition Zposition Zrotation Xrotation Yrotation 
								End Site
								{
									OFFSET 0.0 0.0 0.0
								}
							}
						}
					}
				}
				JOINT Shoulder_R
				{
					OFFSET 12.9945 -0.242716 -4.98039
					CHANNELS 6 Xposition Yposition Zposition Zrotation Xrotation Yrotation 
					JOINT UpperArm_R
					{
						OFFSET -5.34813 0.0 0.0
						CHANNELS 6 Xposition Yposition Zposition Zrotation Xrotation Yrotation 
						JOINT LowerArm_R
						{
							OFFSET -24.3289 0.000322201 0.0
							CHANNELS 6 Xposition Yposition Zposition Zrotation Xrotation Yrotation 
							JOINT Hand_R
							{
								OFFSET -22.2915 -0.000108084 0.0
								CHANNELS 6 Xposition Yposition Zposition Zrotation Xrotation Yrotation 
								End Site
								{
									OFFSET 0.0 0.0 0.0
								}
							}
						}
					}
				}
			}
		}
		JOINT UpperLeg_L
		{
			OFFSET -2.19248 -6.46944 0.0
			CHANNELS 6 Xposition Yposition Zposition Zrotation Xrotation Yrotation 
			JOINT LowerLeg_L
			{
				OFFSET 39.0811 0.0 -1.23785e-05
				CHANNELS 6 Xposition Yposition Zposition Zrotation Xrotation Yrotation 
				JOINT Foot_L
				{
					OFFSET 40.9854 0.0 -1.26872e-05
					CHANNELS 6 Xposition Yposition Zposition Zrotation Xrotation Yrotation 
					JOINT Toes_L
					{
						OFFSET 11.7543 0.0 0.0
						CHANNELS 6 Xposition Yposition Zposition Zrotation Xrotation Yrotation 
						End Site
						{
							OFFSET 0.0 0.0 0.0
						}
					}
				}
			}
		}
		JOINT UpperLeg_R
		{
			OFFSET -2.19251 6.46944 0.0
			CHANNELS 6 Xposition Yposition Zposition Zrotation Xrotation Yrotation 
			JOINT LowerLeg_R
			{
				OFFSET -39.0811 -0.00228153 -0.0401928
				CHANNELS 6 Xposition Yposition Zposition Zrotation Xrotation Yrotation 
				JOINT Foot_R
				{
					OFFSET -40.9854 0.0 0.0
					CHANNELS 6 Xposition Yposition Zposition Zrotation Xrotation Yrotation 
					JOINT Toes_R
					{
						OFFSET -11.7543 0.0 0.0
						CHANNELS 6 Xposition Yposition Zposition Zrotation Xrotation Yrotation 
						End Site
						{
							OFFSET 0.0 0.0 0.0
						}
					}
				}
			}
		}
	}
}
MOTION
Frames:	4
Frame Time:	0.0333333
0.000000 0.000000 0.000000 0.000000 0.000000 -0.000000 -1.139310 91.803700 -1.867700 87.539200 -2.654480 7.776560 15.735700 0.000005 -0.000001 94.742100 85.828600 -95.052400 8.984550 -0.406207 -0.000000 0.550248 0.709015 -0.623570 16.377300 -0.000001 -0.000001 5.851280 -1.888500 2.685850 6.456720 -0.000001 -0.000000 6.946350 -2.855710 -3.427760 12.994200 -0.242716 4.980390 -89.133400 -2.473500 -70.685600 5.348090 -0.000007 -0.000001 24.380000 75.371400 -71.347400 24.328600 0.000019 0.000005 10.086600 0.628845 -86.469500 22.291600 -0.000001 0.000005 40.370700 5.540180 -33.990000 12.994500 -0.242716 -4.980390 90.102000 -0.272733 -69.494800 -5.348130 -0.000001 -0.000004 -52.454300 -41.492300 -91.300600 -24.328900 0.000322 -0.000009 10.595800 4.868360 -65.600900 -22.291500 -0.000108 -0.000004 22.523700 5.353960 -1.496570 -2.192480 -6.469440 -0.000000 -167.201000 -19.574600 0.580746 39.081100 -0.000007 -0.000012 -0.203292 0.446705 24.470200 40.985400 -0.000006 -0.000013 -6.114920 0.315173 -64.459700 11.754300 -0.000000 0.000003 -0.000095 -0.000987 -16.615500 -2.192510 6.469440 -0.000001 172.770000 22.274400 -177.113000 -39.081100 -0.002282 -0.040193 -0.077473 0.206508 21.366900 -40.985400 0.000008 0.000006 -4.067500 3.656980 -63.687000 -11.754300 -0.000006 -0.000006 -0.004834 -0.059849 -19.008100
0.000000 0.000000 0.000000 0.000000 0.000000 -0.000000 -1.143770 91.809100 -1.928010 87.529000 -2.704690 7.749410 15.735700 0.000005 -0.000001 94.721200 85.815600 -95.015000 8.984550 -0.406207 -0.000000 0.576304 0.707015 -0.590758 16.377300 -0.000001 -0.000001 5.848390 -1.908050 2.689190 6.456720 -0.000001 -0.000000 6.841440 -2.908820 -3.424780 12.994200 -0.242716 4.980390 -89.138100 -2.459180 -70.678100 5.348090 -0.000007 -0.000001 24.100200 75.410700 -71.087200 24.328600 0.000019 0.000005 10.087900 0.642959 -86.390900 22.291600 -0.000001 0.000005 40.360300 5.537670 -34.104200 12.994500 -0.242716 -4.980390 90.102800 -0.273872 -69.419900 -5.348130 -0.000001 -0.000004 -52.362600 -41.519000 -91.340500 -24.328900 0.000322 -0.000009 10.600700 4.887640 -65.526000 -22.291500 -0.000108 -0.000004 22.511800 5.351840 -1.432520 -2.192480 -6.469440 -0.000000 -167.213000 -19.630800 0.514548 39.081100 -0.000007 -0.000012 -0.201091 0.441673 24.479800 40.985400 -0.000006 -0.000013 -6.096900 0.299489 -64.427100 11.754300 -0.000000 0.000003 -0.000084 -0.000888 -16.611700 -2.192510 6.469440 -0.000001 172.801000 22.257500 -177.176000 -39.081100 -0.002282 -0.040193 -0.077870 0.207885 21.333100 -40.985400 0.000008 0.000006 -4.101470 3.719540 -63.620900 -11.754300 -0.000006 -0.000006 -0.004960 -0.061081 -19.058300
0.000000 0.000000 0.000000 0.000000 0.000000 -0.000000 -1.145820 91.814600 -1.991800 87.530900 -2.713410 7.695620 15.735700 0.000005 -0.000001 94.644500 85.813200 -94.940700 8.984550 -0.406207 -0.000000 0.582022 0.696383 -0.595683 16.377300 -0.000001 -0.000001 5.826660 -1.910010 2.708620 6.456720 -0.000001 -0.000000 6.816210 -2.912120 -3.342770 12.994200 -0.242716 4.980390 -89.132000 -2.475320 -70.669000 5.348090 -0.000007 -0.000001 23.801600 75.419900 -70.812400 24.328600 0.000019 0.000005 9.975800 0.638397 -86.375500 22.291600 -0.000001 0.000005 40.208300 5.535410 -34.205900 12.994500 -0.242716 -4.980390 90.100100 -0.266155 -69.384900 -5.348130 -0.000001 -0.000004 -52.322800 -41.562200 -91.353700 -24.328900 0.000322 -0.000009 10.614800 4.902820 -65.488500 -22.291500 -0.000108 -0.000004 22.488500 5.350770 -1.400480 -2.192480 -6.469440 -0.000000 -167.253000 -19.620400 0.407780 39.081100 -0.000007 -0.000012 -0.201107 0.441836 24.473600 40.985400 -0.000006 -0.000013 -6.090460 0.264879 -64.379300 11.754300 -0.000000 0.000003 -0.000084 -0.000890 -16.611800 -2.192510 6.469440 -0.000001 172.827000 22.320200 -177.273000 -39.081100 -0.002282 -0.040193 -0.079652 0.212701 21.310000 -40.985400 0.000008 0.000006 -4.184880 3.760020 -63.547300 -11.754300 -0.000006 -0.000006 -0.004720 -0.058729 -18.962500
0.000000 0.000000 0.000000 0.000000 0.000000 -0.000000 -1.145930 91.821100 -2.049930 87.541600 -2.733360 7.665350 15.735700 0.000005 -0.000001 94.625000 85.810700 -94.921200 8.984550 -0.406207 -0.000000 0.587182 0.693922 -0.595449 16.377300 -0.000001 -0.000001 5.833790 -1.929480 2.775550 6.456720 -0.000001 -0.000000 6.781180 -2.939340 -3.323590 12.994200 -0.242716 4.980390 -89.139700 -2.452040 -70.660100 5.348090 -0.000007 -0.000001 23.686500 75.444300 -70.668700 24.328600 0.000019 0.000005 10.116600 0.643578 -86.397900 22.291600 -0.000001 0.000005 40.163600 5.536310 -34.165300 12.994500 -0.242716 -4.980390 90.106600 -0.282993 -69.357200 -5.348130 -0.000001 -0.000004 -52.266500 -41.562200 -91.331800 -24.328900 0.000322 -0.000009 10.760400 4.958330 -65.547100 -22.291500 -0.000108 -0.000004 22.570000 5.348250 -1.324920 -2.192480 -6.469440 -0.000000 -167.294000 -19.631500 0.348108 39.081100 -0.000007 -0.000012 -0.198706 0.436950 24.454300 40.985400 -0.000006 -0.000013 -6.079040 0.234432 -64.337400 11.754300 -0.000000 0.000003 -0.000103 -0.001056 -16.618000 -2.192510 6.469440 -0.000001 172.848000 22.304700 -177.348000 -39.081100 -0.002282 -0.040193 -0.080149 0.214020 21.306000 -40.985400 0.000008 0.000006 -4.157910 3.778300 -63.512000 -11.754300 -0.000006 -0.000006 -0.004857 -0.060076 -19.017400
